<mxfile host="app.diagrams.net" modified="2022-09-16T04:49:38.750Z" agent="5.0 (Windows NT 10.0; Win64; x64) AppleWebKit/537.36 (KHTML, like Gecko) Chrome/105.0.0.0 Safari/537.36" etag="pb8U-HxZ83FS-UQ2LcRD" version="20.3.0" type="github">
  <diagram id="ZvhFkDVLkiYNxoEatRVC" name="페이지-1">
    <mxGraphModel dx="938" dy="663" grid="1" gridSize="10" guides="1" tooltips="1" connect="1" arrows="1" fold="1" page="1" pageScale="1" pageWidth="827" pageHeight="1169" math="0" shadow="0">
      <root>
        <mxCell id="0" />
        <mxCell id="1" parent="0" />
        <mxCell id="gaK9QJrm34Q4BLt2g8Os-1" value="" style="shape=table;startSize=0;container=1;collapsible=0;childLayout=tableLayout;fontSize=20;" parent="1" vertex="1">
          <mxGeometry x="130" y="160" width="450" height="500" as="geometry" />
        </mxCell>
        <mxCell id="gaK9QJrm34Q4BLt2g8Os-2" value="" style="shape=tableRow;horizontal=0;startSize=0;swimlaneHead=0;swimlaneBody=0;top=0;left=0;bottom=0;right=0;collapsible=0;dropTarget=0;fillColor=none;points=[[0,0.5],[1,0.5]];portConstraint=eastwest;" parent="gaK9QJrm34Q4BLt2g8Os-1" vertex="1">
          <mxGeometry width="450" height="62" as="geometry" />
        </mxCell>
        <mxCell id="gaK9QJrm34Q4BLt2g8Os-3" value="" style="shape=partialRectangle;html=1;whiteSpace=wrap;connectable=0;overflow=hidden;fillColor=#E6E6E6;top=0;left=0;bottom=0;right=0;pointerEvents=1;fontSize=20;fontStyle=1" parent="gaK9QJrm34Q4BLt2g8Os-2" vertex="1">
          <mxGeometry width="82" height="62" as="geometry">
            <mxRectangle width="82" height="62" as="alternateBounds" />
          </mxGeometry>
        </mxCell>
        <mxCell id="gaK9QJrm34Q4BLt2g8Os-4" value="한송" style="shape=partialRectangle;html=1;whiteSpace=wrap;connectable=0;overflow=hidden;fillColor=#E6E6E6;top=0;left=0;bottom=0;right=0;pointerEvents=1;fontSize=20;fontStyle=1" parent="gaK9QJrm34Q4BLt2g8Os-2" vertex="1">
          <mxGeometry x="82" width="185" height="62" as="geometry">
            <mxRectangle width="185" height="62" as="alternateBounds" />
          </mxGeometry>
        </mxCell>
        <mxCell id="gaK9QJrm34Q4BLt2g8Os-5" value="한결" style="shape=partialRectangle;html=1;whiteSpace=wrap;connectable=0;overflow=hidden;fillColor=#E6E6E6;top=0;left=0;bottom=0;right=0;pointerEvents=1;fontSize=20;fontStyle=1" parent="gaK9QJrm34Q4BLt2g8Os-2" vertex="1">
          <mxGeometry x="267" width="183" height="62" as="geometry">
            <mxRectangle width="183" height="62" as="alternateBounds" />
          </mxGeometry>
        </mxCell>
        <mxCell id="gaK9QJrm34Q4BLt2g8Os-6" value="" style="shape=tableRow;horizontal=0;startSize=0;swimlaneHead=0;swimlaneBody=0;top=0;left=0;bottom=0;right=0;collapsible=0;dropTarget=0;fillColor=none;points=[[0,0.5],[1,0.5]];portConstraint=eastwest;" parent="gaK9QJrm34Q4BLt2g8Os-1" vertex="1">
          <mxGeometry y="62" width="450" height="64" as="geometry" />
        </mxCell>
        <mxCell id="gaK9QJrm34Q4BLt2g8Os-7" value="월" style="shape=partialRectangle;html=1;whiteSpace=wrap;connectable=0;overflow=hidden;fillColor=#E6E6E6;top=0;left=0;bottom=0;right=0;pointerEvents=1;fontSize=20;fontStyle=1" parent="gaK9QJrm34Q4BLt2g8Os-6" vertex="1">
          <mxGeometry width="82" height="64" as="geometry">
            <mxRectangle width="82" height="64" as="alternateBounds" />
          </mxGeometry>
        </mxCell>
        <mxCell id="gaK9QJrm34Q4BLt2g8Os-8" value="" style="shape=partialRectangle;html=1;whiteSpace=wrap;connectable=0;overflow=hidden;fillColor=none;top=0;left=0;bottom=0;right=0;pointerEvents=1;fontSize=20;fontStyle=1" parent="gaK9QJrm34Q4BLt2g8Os-6" vertex="1">
          <mxGeometry x="82" width="185" height="64" as="geometry">
            <mxRectangle width="185" height="64" as="alternateBounds" />
          </mxGeometry>
        </mxCell>
        <mxCell id="gaK9QJrm34Q4BLt2g8Os-9" value="영어 6:00 ~" style="shape=partialRectangle;html=1;whiteSpace=wrap;connectable=0;overflow=hidden;fillColor=none;top=0;left=0;bottom=0;right=0;pointerEvents=1;fontSize=20;fontStyle=1" parent="gaK9QJrm34Q4BLt2g8Os-6" vertex="1">
          <mxGeometry x="267" width="183" height="64" as="geometry">
            <mxRectangle width="183" height="64" as="alternateBounds" />
          </mxGeometry>
        </mxCell>
        <mxCell id="gaK9QJrm34Q4BLt2g8Os-10" value="" style="shape=tableRow;horizontal=0;startSize=0;swimlaneHead=0;swimlaneBody=0;top=0;left=0;bottom=0;right=0;collapsible=0;dropTarget=0;fillColor=none;points=[[0,0.5],[1,0.5]];portConstraint=eastwest;" parent="gaK9QJrm34Q4BLt2g8Os-1" vertex="1">
          <mxGeometry y="126" width="450" height="62" as="geometry" />
        </mxCell>
        <mxCell id="gaK9QJrm34Q4BLt2g8Os-11" value="화" style="shape=partialRectangle;html=1;whiteSpace=wrap;connectable=0;overflow=hidden;fillColor=#E6E6E6;top=0;left=0;bottom=0;right=0;pointerEvents=1;fontSize=20;fontStyle=1" parent="gaK9QJrm34Q4BLt2g8Os-10" vertex="1">
          <mxGeometry width="82" height="62" as="geometry">
            <mxRectangle width="82" height="62" as="alternateBounds" />
          </mxGeometry>
        </mxCell>
        <mxCell id="gaK9QJrm34Q4BLt2g8Os-12" value="수학 오르고&lt;br style=&quot;font-size: 20px;&quot;&gt;7:30~10:30" style="shape=partialRectangle;html=1;whiteSpace=wrap;connectable=0;overflow=hidden;fillColor=none;top=0;left=0;bottom=0;right=0;pointerEvents=1;fontSize=20;fontStyle=1" parent="gaK9QJrm34Q4BLt2g8Os-10" vertex="1">
          <mxGeometry x="82" width="185" height="62" as="geometry">
            <mxRectangle width="185" height="62" as="alternateBounds" />
          </mxGeometry>
        </mxCell>
        <mxCell id="gaK9QJrm34Q4BLt2g8Os-13" value="" style="shape=partialRectangle;html=1;whiteSpace=wrap;connectable=0;overflow=hidden;fillColor=none;top=0;left=0;bottom=0;right=0;pointerEvents=1;fontSize=20;fontStyle=1" parent="gaK9QJrm34Q4BLt2g8Os-10" vertex="1">
          <mxGeometry x="267" width="183" height="62" as="geometry">
            <mxRectangle width="183" height="62" as="alternateBounds" />
          </mxGeometry>
        </mxCell>
        <mxCell id="gaK9QJrm34Q4BLt2g8Os-14" value="" style="shape=tableRow;horizontal=0;startSize=0;swimlaneHead=0;swimlaneBody=0;top=0;left=0;bottom=0;right=0;collapsible=0;dropTarget=0;fillColor=none;points=[[0,0.5],[1,0.5]];portConstraint=eastwest;" parent="gaK9QJrm34Q4BLt2g8Os-1" vertex="1">
          <mxGeometry y="188" width="450" height="62" as="geometry" />
        </mxCell>
        <mxCell id="gaK9QJrm34Q4BLt2g8Os-15" value="수" style="shape=partialRectangle;html=1;whiteSpace=wrap;connectable=0;overflow=hidden;fillColor=#E6E6E6;top=0;left=0;bottom=0;right=0;pointerEvents=1;fontSize=20;fontStyle=1" parent="gaK9QJrm34Q4BLt2g8Os-14" vertex="1">
          <mxGeometry width="82" height="62" as="geometry">
            <mxRectangle width="82" height="62" as="alternateBounds" />
          </mxGeometry>
        </mxCell>
        <mxCell id="gaK9QJrm34Q4BLt2g8Os-16" value="" style="shape=partialRectangle;html=1;whiteSpace=wrap;connectable=0;overflow=hidden;fillColor=none;top=0;left=0;bottom=0;right=0;pointerEvents=1;fontSize=20;fontStyle=1" parent="gaK9QJrm34Q4BLt2g8Os-14" vertex="1">
          <mxGeometry x="82" width="185" height="62" as="geometry">
            <mxRectangle width="185" height="62" as="alternateBounds" />
          </mxGeometry>
        </mxCell>
        <mxCell id="gaK9QJrm34Q4BLt2g8Os-17" value="국어 5:00 ~" style="shape=partialRectangle;html=1;whiteSpace=wrap;connectable=0;overflow=hidden;fillColor=none;top=0;left=0;bottom=0;right=0;pointerEvents=1;fontSize=20;fontStyle=1" parent="gaK9QJrm34Q4BLt2g8Os-14" vertex="1">
          <mxGeometry x="267" width="183" height="62" as="geometry">
            <mxRectangle width="183" height="62" as="alternateBounds" />
          </mxGeometry>
        </mxCell>
        <mxCell id="gaK9QJrm34Q4BLt2g8Os-34" value="" style="shape=tableRow;horizontal=0;startSize=0;swimlaneHead=0;swimlaneBody=0;top=0;left=0;bottom=0;right=0;collapsible=0;dropTarget=0;fillColor=none;points=[[0,0.5],[1,0.5]];portConstraint=eastwest;" parent="gaK9QJrm34Q4BLt2g8Os-1" vertex="1">
          <mxGeometry y="250" width="450" height="62" as="geometry" />
        </mxCell>
        <mxCell id="gaK9QJrm34Q4BLt2g8Os-35" value="목" style="shape=partialRectangle;html=1;whiteSpace=wrap;connectable=0;overflow=hidden;fillColor=#E6E6E6;top=0;left=0;bottom=0;right=0;pointerEvents=1;fontSize=20;fontStyle=1" parent="gaK9QJrm34Q4BLt2g8Os-34" vertex="1">
          <mxGeometry width="82" height="62" as="geometry">
            <mxRectangle width="82" height="62" as="alternateBounds" />
          </mxGeometry>
        </mxCell>
        <mxCell id="gaK9QJrm34Q4BLt2g8Os-36" value="국어&lt;br style=&quot;font-size: 20px;&quot;&gt;7:00~8:30" style="shape=partialRectangle;html=1;whiteSpace=wrap;connectable=0;overflow=hidden;fillColor=none;top=0;left=0;bottom=0;right=0;pointerEvents=1;fontSize=20;fontStyle=1" parent="gaK9QJrm34Q4BLt2g8Os-34" vertex="1">
          <mxGeometry x="82" width="185" height="62" as="geometry">
            <mxRectangle width="185" height="62" as="alternateBounds" />
          </mxGeometry>
        </mxCell>
        <mxCell id="gaK9QJrm34Q4BLt2g8Os-37" value="수학 3:00 ~" style="shape=partialRectangle;html=1;whiteSpace=wrap;connectable=0;overflow=hidden;fillColor=none;top=0;left=0;bottom=0;right=0;pointerEvents=1;fontSize=20;fontStyle=1" parent="gaK9QJrm34Q4BLt2g8Os-34" vertex="1">
          <mxGeometry x="267" width="183" height="62" as="geometry">
            <mxRectangle width="183" height="62" as="alternateBounds" />
          </mxGeometry>
        </mxCell>
        <mxCell id="gaK9QJrm34Q4BLt2g8Os-22" value="" style="shape=tableRow;horizontal=0;startSize=0;swimlaneHead=0;swimlaneBody=0;top=0;left=0;bottom=0;right=0;collapsible=0;dropTarget=0;fillColor=none;points=[[0,0.5],[1,0.5]];portConstraint=eastwest;" parent="gaK9QJrm34Q4BLt2g8Os-1" vertex="1">
          <mxGeometry y="312" width="450" height="64" as="geometry" />
        </mxCell>
        <mxCell id="gaK9QJrm34Q4BLt2g8Os-23" value="금" style="shape=partialRectangle;html=1;whiteSpace=wrap;connectable=0;overflow=hidden;fillColor=#E6E6E6;top=0;left=0;bottom=0;right=0;pointerEvents=1;fontSize=20;fontStyle=1" parent="gaK9QJrm34Q4BLt2g8Os-22" vertex="1">
          <mxGeometry width="82" height="64" as="geometry">
            <mxRectangle width="82" height="64" as="alternateBounds" />
          </mxGeometry>
        </mxCell>
        <mxCell id="gaK9QJrm34Q4BLt2g8Os-24" value="" style="shape=partialRectangle;html=1;whiteSpace=wrap;connectable=0;overflow=hidden;fillColor=none;top=0;left=0;bottom=0;right=0;pointerEvents=1;fontSize=20;fontStyle=1" parent="gaK9QJrm34Q4BLt2g8Os-22" vertex="1">
          <mxGeometry x="82" width="185" height="64" as="geometry">
            <mxRectangle width="185" height="64" as="alternateBounds" />
          </mxGeometry>
        </mxCell>
        <mxCell id="gaK9QJrm34Q4BLt2g8Os-25" value="영어 6:00 ~" style="shape=partialRectangle;html=1;whiteSpace=wrap;connectable=0;overflow=hidden;fillColor=none;top=0;left=0;bottom=0;right=0;pointerEvents=1;fontSize=20;fontStyle=1" parent="gaK9QJrm34Q4BLt2g8Os-22" vertex="1">
          <mxGeometry x="267" width="183" height="64" as="geometry">
            <mxRectangle width="183" height="64" as="alternateBounds" />
          </mxGeometry>
        </mxCell>
        <mxCell id="gaK9QJrm34Q4BLt2g8Os-26" value="" style="shape=tableRow;horizontal=0;startSize=0;swimlaneHead=0;swimlaneBody=0;top=0;left=0;bottom=0;right=0;collapsible=0;dropTarget=0;fillColor=none;points=[[0,0.5],[1,0.5]];portConstraint=eastwest;" parent="gaK9QJrm34Q4BLt2g8Os-1" vertex="1">
          <mxGeometry y="376" width="450" height="62" as="geometry" />
        </mxCell>
        <mxCell id="gaK9QJrm34Q4BLt2g8Os-27" value="토" style="shape=partialRectangle;html=1;whiteSpace=wrap;connectable=0;overflow=hidden;fillColor=#E6E6E6;top=0;left=0;bottom=0;right=0;pointerEvents=1;fontSize=20;fontStyle=1" parent="gaK9QJrm34Q4BLt2g8Os-26" vertex="1">
          <mxGeometry width="82" height="62" as="geometry">
            <mxRectangle width="82" height="62" as="alternateBounds" />
          </mxGeometry>
        </mxCell>
        <mxCell id="gaK9QJrm34Q4BLt2g8Os-28" value="국어&lt;br style=&quot;font-size: 20px;&quot;&gt;2:00~3:30" style="shape=partialRectangle;html=1;whiteSpace=wrap;connectable=0;overflow=hidden;fillColor=none;top=0;left=0;bottom=0;right=0;pointerEvents=1;fontSize=20;fontStyle=1" parent="gaK9QJrm34Q4BLt2g8Os-26" vertex="1">
          <mxGeometry x="82" width="185" height="62" as="geometry">
            <mxRectangle width="185" height="62" as="alternateBounds" />
          </mxGeometry>
        </mxCell>
        <mxCell id="gaK9QJrm34Q4BLt2g8Os-29" value="&lt;font color=&quot;#0000ff&quot;&gt;과학 11:30 ~&lt;/font&gt;&lt;br style=&quot;font-size: 20px;&quot;&gt;수학&amp;nbsp; &amp;nbsp;5:00 ~" style="shape=partialRectangle;html=1;whiteSpace=wrap;connectable=0;overflow=hidden;fillColor=none;top=0;left=0;bottom=0;right=0;pointerEvents=1;fontSize=20;fontStyle=1" parent="gaK9QJrm34Q4BLt2g8Os-26" vertex="1">
          <mxGeometry x="267" width="183" height="62" as="geometry">
            <mxRectangle width="183" height="62" as="alternateBounds" />
          </mxGeometry>
        </mxCell>
        <mxCell id="gaK9QJrm34Q4BLt2g8Os-30" value="" style="shape=tableRow;horizontal=0;startSize=0;swimlaneHead=0;swimlaneBody=0;top=0;left=0;bottom=0;right=0;collapsible=0;dropTarget=0;fillColor=none;points=[[0,0.5],[1,0.5]];portConstraint=eastwest;" parent="gaK9QJrm34Q4BLt2g8Os-1" vertex="1">
          <mxGeometry y="438" width="450" height="62" as="geometry" />
        </mxCell>
        <mxCell id="gaK9QJrm34Q4BLt2g8Os-31" value="일" style="shape=partialRectangle;html=1;whiteSpace=wrap;connectable=0;overflow=hidden;fillColor=#E6E6E6;top=0;left=0;bottom=0;right=0;pointerEvents=1;fontSize=20;fontStyle=1" parent="gaK9QJrm34Q4BLt2g8Os-30" vertex="1">
          <mxGeometry width="82" height="62" as="geometry">
            <mxRectangle width="82" height="62" as="alternateBounds" />
          </mxGeometry>
        </mxCell>
        <mxCell id="gaK9QJrm34Q4BLt2g8Os-32" value="&lt;font color=&quot;#0000ff&quot;&gt;생명 10:00 ~&lt;/font&gt;&lt;br style=&quot;font-size: 20px;&quot;&gt;수학&amp;nbsp; &amp;nbsp;3:00 ~" style="shape=partialRectangle;html=1;whiteSpace=wrap;connectable=0;overflow=hidden;fillColor=none;top=0;left=0;bottom=0;right=0;pointerEvents=1;fontSize=20;fontStyle=1" parent="gaK9QJrm34Q4BLt2g8Os-30" vertex="1">
          <mxGeometry x="82" width="185" height="62" as="geometry">
            <mxRectangle width="185" height="62" as="alternateBounds" />
          </mxGeometry>
        </mxCell>
        <mxCell id="gaK9QJrm34Q4BLt2g8Os-33" value="구해봄&amp;nbsp; 5:00 ~" style="shape=partialRectangle;html=1;whiteSpace=wrap;connectable=0;overflow=hidden;fillColor=none;top=0;left=0;bottom=0;right=0;pointerEvents=1;fontSize=20;fontStyle=1" parent="gaK9QJrm34Q4BLt2g8Os-30" vertex="1">
          <mxGeometry x="267" width="183" height="62" as="geometry">
            <mxRectangle width="183" height="62" as="alternateBounds" />
          </mxGeometry>
        </mxCell>
      </root>
    </mxGraphModel>
  </diagram>
</mxfile>
